<svg width="24" height="24" viewBox="0 0 24 24" fill="none" xmlns="http://www.w3.org/2000/svg">
<g clip-path="url(#clip0_13_35)">
<path d="M0.666664 11.3334L6 6.66669L16.6667 7.33335L17.3333 18L12.6667 23.3334C12.6667 23.3334 12.6673 19.334 8.66667 15.3334C4.666 11.3327 0.666664 11.3334 0.666664 11.3334Z" fill="#A0041E"/>
<path d="M0.648611 23.3333C0.648611 23.3333 0.624611 18.0139 2.63861 15.9999C4.65261 13.9859 9.99994 14.1246 9.99994 14.1246C9.99994 14.1246 9.99928 19.3333 7.99928 21.3333C5.99928 23.3333 0.648611 23.3333 0.648611 23.3333Z" fill="#FFAC33"/>
<path d="M5.99935 20.6666C7.47211 20.6666 8.66601 19.4727 8.66601 18C8.66601 16.5272 7.47211 15.3333 5.99935 15.3333C4.52659 15.3333 3.33268 16.5272 3.33268 18C3.33268 19.4727 4.52659 20.6666 5.99935 20.6666Z" fill="#FFCC4D"/>
<path d="M23.9993 0C23.9993 0 17.3326 0 9.33259 6.66667C5.33259 10 5.33259 16 6.66593 17.3333C7.99926 18.6667 13.9993 18.6667 17.3326 14.6667C23.9993 6.66667 23.9993 0 23.9993 0Z" fill="#55ACEE"/>
<path d="M17.9993 3.33331C16.9173 3.33331 15.9906 3.98065 15.5719 4.90665C15.9066 4.75531 16.2753 4.66665 16.6659 4.66665C18.1386 4.66665 19.3326 5.86065 19.3326 7.33331C19.3326 7.72398 19.2439 8.09265 19.0933 8.42665C20.0193 8.00865 20.6659 7.08198 20.6659 5.99998C20.6659 4.52731 19.4719 3.33331 17.9993 3.33331Z" fill="black"/>
<path d="M5.33334 18.6666C5.33334 18.6666 5.33334 16 6 15.3333C6.66667 14.6666 14.6673 8.00064 15.3333 8.66664C15.9993 9.33264 9.33267 17.3333 8.666 18C7.99934 18.6666 5.33334 18.6666 5.33334 18.6666Z" fill="#A0041E"/>
</g>
<defs>
<clipPath id="clip0_13_35">
<rect width="24" height="24" fill="white"/>
</clipPath>
</defs>
</svg>
